<?xml version="1.0"?>
<svg xmlns="http://www.w3.org/2000/svg" xmlns:xlink="http://www.w3.org/1999/xlink" xmlns:svgjs="http://svgjs.com/svgjs" version="1.1" width="256" height="256" x="0" y="0" viewBox="0 0 24 24" style="enable-background:new 0 0 512 512" xml:space="preserve"><g><circle cx="7" cy="22" r="2" fill="#023463" data-original="#000000"/><circle cx="17" cy="22" r="2" fill="#023463" data-original="#000000"/><path d="M22.813,9.583A6,6,0,0,1,12.8,3H4.242L4.2,2.648A3,3,0,0,0,1.222,0H0V2H1.222a1,1,0,0,1,.993.883L3.8,16.351A3,3,0,0,0,6.778,19H20V17H6.778a1,1,0,0,1-.993-.884L5.654,15H21.836Z" fill="#023463" data-original="#000000"/><polygon points="21 5 19 5 19 3 17 3 17 5 15 5 15 7 17 7 17 9 19 9 19 7 21 7 21 5" fill="#023463" data-original="#000000"/></g></svg>
