<?xml version="1.0"?>
<svg xmlns="http://www.w3.org/2000/svg" xmlns:xlink="http://www.w3.org/1999/xlink" xmlns:svgjs="http://svgjs.com/svgjs" version="1.1" width="256" height="256" x="0" y="0" viewBox="0 0 24 24" style="enable-background:new 0 0 512 512" xml:space="preserve"><g><path d="m15.829 2a3.006 3.006 0 0 0 -2.829-2h-2a3.006 3.006 0 0 0 -2.829 2h-5.171v19a3 3 0 0 0 3 3h12a3 3 0 0 0 3-3v-19zm-7.829 6h3v-3h2v3h3v2h-3v3h-2v-3h-3zm5 13h-6v-2h6zm4-4h-10v-2h10z" fill="#023463" data-original="#000000"/></g></svg>
